STARTFONT 2.1
FONT -FontForge-Untitled1-Regular-R-Normal--12-90-100-100-M-120-ISO8859-1
SIZE 9 100 100
FONTBOUNDINGBOX 12 11 0 -4
COMMENT "Generated by fontforge, http://fontforge.sourceforge.net"
COMMENT "Copyright (c) 2022, Solidhal"
STARTPROPERTIES 28
FOUNDRY "FontForge"
FAMILY_NAME "Untitled1"
WEIGHT_NAME "Regular"
SLANT "R"
SETWIDTH_NAME "Normal"
ADD_STYLE_NAME ""
PIXEL_SIZE 12
POINT_SIZE 90
RESOLUTION_X 100
RESOLUTION_Y 100
SPACING "M"
AVERAGE_WIDTH 120
CHARSET_REGISTRY "ISO8859"
CHARSET_ENCODING "1"
FONTNAME_REGISTRY ""
CHARSET_COLLECTIONS "ISOLatin1Encoding"
FONT_NAME "Untitled1"
FACE_NAME "Untitled1"
COPYRIGHT "Copyright (c) 2022, Solidhal"
FONT_VERSION "001.000"
FONT_ASCENT 10
FONT_DESCENT 2
UNDERLINE_POSITION -1
UNDERLINE_THICKNESS 1
RAW_ASCENT 800
RAW_DESCENT 200
FIGURE_WIDTH -1
AVG_UPPERCASE_WIDTH 120
ENDPROPERTIES
CHARS 12
STARTCHAR A
ENCODING 65
SWIDTH 1000 0
DWIDTH 12 0
BBX 9 9 1 -3
BITMAP
0800
4100
1C00
2200
A280
2200
1C00
4100
0800
ENDCHAR
STARTCHAR B
ENCODING 66
SWIDTH 1000 0
DWIDTH 12 0
BBX 7 8 2 -2
BITMAP
38
44
88
88
88
86
42
3C
ENDCHAR
STARTCHAR C
ENCODING 67
SWIDTH 1000 0
DWIDTH 12 0
BBX 12 10 0 -3
BITMAP
0100
0820
0380
0440
1F50
6140
40C0
8040
8040
7F80
ENDCHAR
STARTCHAR D
ENCODING 68
SWIDTH 1000 0
DWIDTH 12 0
BBX 11 9 0 -3
BITMAP
0380
0440
0880
0E80
3160
40A0
80C0
8040
7F80
ENDCHAR
STARTCHAR E
ENCODING 69
SWIDTH 1000 0
DWIDTH 12 0
BBX 10 6 1 -2
BITMAP
1E00
6100
4080
8040
8040
7F80
ENDCHAR
STARTCHAR F
ENCODING 70
SWIDTH 1000 0
DWIDTH 12 0
BBX 10 8 1 -3
BITMAP
0E00
3100
4080
8040
8040
7F80
2480
4900
ENDCHAR
STARTCHAR G
ENCODING 71
SWIDTH 1000 0
DWIDTH 12 0
BBX 11 11 1 -4
BITMAP
0200
1040
0700
0880
3CA0
4280
8100
8140
7E00
5400
A800
ENDCHAR
STARTCHAR H
ENCODING 72
SWIDTH 1000 0
DWIDTH 12 0
BBX 10 11 1 -4
BITMAP
0700
0880
1100
1100
3CC0
4240
8180
8100
7E00
5400
A800
ENDCHAR
STARTCHAR I
ENCODING 73
SWIDTH 1000 0
DWIDTH 12 0
BBX 8 11 1 -4
BITMAP
3F
21
42
44
8E
E2
24
48
50
A0
C0
ENDCHAR
STARTCHAR J
ENCODING 74
SWIDTH 1000 0
DWIDTH 12 0
BBX 10 10 1 -3
BITMAP
0E00
3100
4080
8040
8040
7F80
0100
1380
3900
1000
ENDCHAR
STARTCHAR K
ENCODING 75
SWIDTH 1000 0
DWIDTH 12 0
BBX 10 9 1 -4
BITMAP
0E00
3100
4080
8040
8040
7F80
0000
7800
0780
ENDCHAR
STARTCHAR L
ENCODING 76
SWIDTH 1000 0
DWIDTH 12 0
BBX 1 1 10 -2
BITMAP
00
ENDCHAR
ENDFONT
